<svg xmlns="http://www.w3.org/2000/svg" viewBox="0 0 1024 1024" role="img"><path d="M319 192A128 128 0 11191 64a128 128 0 01128 128zM511 64a128 128 0 10128 128A128 128 0 00511 64zm320 0a128 128 0 10128 128A128 128 0 00831 64zM191 384a128 128 0 10128 128 128 128 0 00-128-128zm320 0a128 128 0 10128 128 128 128 0 00-128-128zm320 0a128 128 0 10128 128 128 128 0 00-128-128zM191 704a128 128 0 10128 128 128 128 0 00-128-128zm320 0a128 128 0 10128 128 128 128 0 00-128-128zm320 0a128 128 0 10128 128 128 128 0 00-128-128z"/></svg>