<svg id="Layer_1" data-name="Layer 1" xmlns="http://www.w3.org/2000/svg" viewBox="0 0 48 48"><defs><style>.cls-1{fill:#e79165;}.cls-2{fill:#9fd367;}.cls-3{fill:#84b749;}.cls-4{fill:#d37b54;}</style></defs><title>plant, nature, leaves, leaf, dirt, earth</title><path class="cls-1" d="M38.77,38.77h-.49a6.38,6.38,0,0,0-10.75-1.72h0A8.73,8.73,0,0,0,23,35.82,8.83,8.83,0,0,0,17.21,38a6.27,6.27,0,0,0-1.58-.2,6.36,6.36,0,0,0-3.92,1.34,8.55,8.55,0,0,0-2.48-.36A8.87,8.87,0,0,0,.36,47.64H47.64A8.87,8.87,0,0,0,38.77,38.77Z"/><path class="cls-2" d="M2.33.36h0A21.67,21.67,0,0,1,24,22v0a0,0,0,0,1,0,0h0A21.67,21.67,0,0,1,2.33.36v0A0,0,0,0,1,2.33.36Z" transform="translate(26.33 22.39) rotate(-180)"/><path class="cls-3" d="M6.27,6.27l1.66.83a25.58,25.58,0,0,1,10.3,9.4A25.51,25.51,0,0,1,22,29.91H26a23.84,23.84,0,0,0-4.71-14.22A23.75,23.75,0,0,0,9,7.08Z"/><path class="cls-2" d="M45.67,6.27h0a0,0,0,0,1,0,0v0A21.67,21.67,0,0,1,24,27.94h0a0,0,0,0,1,0,0v0A21.67,21.67,0,0,1,45.67,6.27Z"/><path class="cls-3" d="M41.73,12.18,40.07,13A25.42,25.42,0,0,0,26,35.82H22A23.85,23.85,0,0,1,39,13Z"/><rect class="cls-3" x="22.03" y="29.91" width="3.94" height="12.8"/><path class="cls-4" d="M.36,47.64a7.58,7.58,0,0,1,7.31-4.93A8.16,8.16,0,0,1,9.79,43l1.07.29.88-.61a5.21,5.21,0,0,1,3-.93,4.88,4.88,0,0,1,1.17.13l1.13.29.89-.71a8,8,0,0,1,5-1.68,8.15,8.15,0,0,1,3.86,1l.52.28h1.59l.67-.68a5.07,5.07,0,0,1,3.7-1.55,4.92,4.92,0,0,1,4.53,2.74l.56,1.21h2a7.58,7.58,0,0,1,7.31,4.93Z"/></svg>