<svg xmlns="http://www.w3.org/2000/svg" viewBox="0 0 32 32">
    <path style="text-indent:0;text-align:start;line-height:normal;text-transform:none;block-progression:tb;-inkscape-font-specification:Bitstream Vera Sans" d="M 11.5 6 C 9.5788479 6 8 7.5788481 8 9.5 C 8 11.421152 9.578848 13 11.5 13 C 13.421152 13 15 11.421152 15 9.5 C 15 7.5788481 13.421152 6 11.5 6 z M 20.5 6 C 18.578848 6 17 7.5788481 17 9.5 C 17 11.421152 18.578848 13 20.5 13 C 22.421152 13 24 11.421152 24 9.5 C 24 7.5788481 22.421152 6 20.5 6 z M 11.5 8 C 12.340272 8 13 8.6597281 13 9.5 C 13 10.340272 12.340272 11 11.5 11 C 10.659728 11 10 10.340272 10 9.5 C 10 8.6597281 10.659728 8 11.5 8 z M 20.5 8 C 21.340272 8 22 8.6597281 22 9.5 C 22 10.340272 21.340272 11 20.5 11 C 19.659728 11 19 10.340272 19 9.5 C 19 8.6597281 19.659728 8 20.5 8 z M 7 12 C 4.8027056 12 3 13.802706 3 16 C 3 17.114227 3.4752606 18.116062 4.21875 18.84375 C 2.88816 19.744728 2 21.281553 2 23 L 4 23 C 4 21.331516 5.3315161 20 7 20 C 8.6684839 20 10 21.331516 10 23 L 12 23 C 12 21.281553 11.11184 19.744728 9.78125 18.84375 C 10.524739 18.116062 11 17.114227 11 16 C 11 13.802706 9.1972944 12 7 12 z M 12 23 C 11.374747 23.837685 11 24.885804 11 26 L 13 26 C 13 24.331516 14.331516 23 16 23 C 17.668484 23 19 24.331516 19 26 L 21 26 C 21 24.885804 20.625253 23.837685 20 23 C 19.660913 22.545707 19.24912 22.160557 18.78125 21.84375 C 19.524739 21.116062 20 20.114227 20 19 C 20 16.802706 18.197294 15 16 15 C 13.802706 15 12 16.802706 12 19 C 12 20.114227 12.475261 21.116062 13.21875 21.84375 C 12.75088 22.160557 12.339087 22.545707 12 23 z M 20 23 L 22 23 C 22 21.331516 23.331516 20 25 20 C 26.668484 20 28 21.331516 28 23 L 30 23 C 30 21.281553 29.11184 19.744728 27.78125 18.84375 C 28.524739 18.116062 29 17.114227 29 16 C 29 13.802706 27.197294 12 25 12 C 22.802706 12 21 13.802706 21 16 C 21 17.114227 21.475261 18.116062 22.21875 18.84375 C 20.88816 19.744728 20 21.281553 20 23 z M 7 14 C 8.116414 14 9 14.883586 9 16 C 9 17.116414 8.116414 18 7 18 C 5.883586 18 5 17.116414 5 16 C 5 14.883586 5.883586 14 7 14 z M 25 14 C 26.116414 14 27 14.883586 27 16 C 27 17.116414 26.116414 18 25 18 C 23.883586 18 23 17.116414 23 16 C 23 14.883586 23.883586 14 25 14 z M 16 17 C 17.116414 17 18 17.883586 18 19 C 18 20.116414 17.116414 21 16 21 C 14.883586 21 14 20.116414 14 19 C 14 17.883586 14.883586 17 16 17 z"/>
</svg>
